<svg xmlns="http://www.w3.org/2000/svg" xmlns:xlink="http://www.w3.org/1999/xlink" width="264" height="60" viewBox="0 0 264 60">
    <defs>
        <path id="a" d="M49 37.78h214.704V14H49z"/>
    </defs>
    <g fill="none" fill-rule="evenodd" transform="translate(0 4)">
        <path fill="#00CEB3" d="M1.698 35.599L5.78 38.97l8.91 7.242a2.82 2.82 0 0 0 1.189.57 2.849 2.849 0 0 0 2.43-.563l12.993-10.522v2.88L17.236 50.053a1.163 1.163 0 0 1-1.469-.002L1.698 38.526V35.6zm21.243-.22l-5.791-4.761a.834.834 0 0 0-.098-.098c-.662-.564-1.517-1.281-2.242-1.826L1.698 17.915v-2.95l23.244 18.827-2.001 1.586zM8.086 33.785l5.197-4.109c.142.098.301.213.478.346l1.395 1.147-5.054 4.148-2.016-1.532zm7.749 6.09l-4.418-3.448 5.071-4.163 5.096 4.189-4.313 3.419a1.156 1.156 0 0 1-1.436.004zM14.688 5.845l-8.13 6.582a.838.838 0 0 0-.31.708.84.84 0 0 0 .303.701l2.14 1.77c.445.38.79.666 1.018.842l6.248 5.167c.034.028.07.054.11.076l4.956 4.068c.405.344.805.68 1.226 1.007l8.566 7.033L17.23 44.905c-.257.21-.595.3-.924.245a1.16 1.16 0 0 1-.534-.243L2.184 33.797l8.09-6.64 1.693 1.391-5.79 4.59a.789.789 0 0 0-.214.255l-.024.041a.919.919 0 0 0-.043.117l-.02.062a.707.707 0 0 0-.012.094.634.634 0 0 0 0 .19.586.586 0 0 0 .04.176.643.643 0 0 0 .083.173.784.784 0 0 0 .058.084.76.76 0 0 0 .059.062.681.681 0 0 0 .072.067l1.974 1.565 6.635 5.18a2.854 2.854 0 0 0 3.544-.011l8.515-6.752a.821.821 0 0 0 .296-.582.858.858 0 0 0-.012-.213l-.01-.048a.872.872 0 0 0-.043-.126l-.018-.043a.842.842 0 0 0-.067-.111l-.033-.047a.867.867 0 0 0-.126-.126L2.185 13.18 15.761 1.954a1.16 1.16 0 0 1 1.478 0L31.3 13.584v2.937L18.317 5.86a2.885 2.885 0 0 0-3.629-.018zm7.414 18.61l-.237-.199c-.246-.208-.498-.421-.755-.634l5.664-4.609a.84.84 0 0 0-.009-1.313l-8.508-6.745a2.874 2.874 0 0 0-3.62.05L10.24 14.69l-.43-.355c-.456-.391-.956-.83-1.35-1.177l7.303-5.995c.366-.3.889-.346 1.3-.117.058.033.113.07.163.111l11.4 9.375a.84.84 0 0 0 .13.09l2.067 1.695-8.033 6.703-.69-.566zm-6.37-12.16a1.164 1.164 0 0 1 1.466-.02l4.945 3.92-5.245 4.002-5.33-4.409 4.164-3.493zm7.78 4.985l1.372 1.089-5.121 4.167-1.513-1.242 5.261-4.014zm9.18 15.869l-8.57-7.034 8.582-7.162a.838.838 0 0 0 .295-.618L33 13.187a.839.839 0 0 0-.306-.648L18.324.656a2.867 2.867 0 0 0-3.65 0L.285 12.558a.84.84 0 0 0-.24.368l-.015.047a.706.706 0 0 0-.026.188L0 18.313c0 .253.112.49.308.65l8.634 7.098-8.644 7.097a.819.819 0 0 0-.267.423A.812.812 0 0 0 0 33.8v5.125c0 .254.113.491.31.652l14.378 11.778a2.87 2.87 0 0 0 3.625.004L32.69 39.63a.84.84 0 0 0 .311-.653v-5.055c0-.02-.001-.04-.004-.058a.84.84 0 0 0-.305-.716z"/>
        <path fill="#1E1210" d="M68.354 29.131c-4.961 1.517-5.513.303-5.513-2.538v-7.971h-3.86v8.8c0 3.998 1.848 6.067 5.046 6.067.66 0 2.04-.303 5.32-1.434l.497 1.076h2.37v-14.51h-3.86v10.51zM109.18 28.524v-6.62h3.887v-3.282h-3.887v-3.476l-3.887.386V28.47c0 5.075 4.962 5.544 8.49 4.661l-.827-2.896c-1.79.358-3.776.22-3.776-1.711"/>
        <mask id="b" fill="#fff">
            <use xlink:href="#a"/>
        </mask>
        <path fill="#1E1210" d="M115.272 33.131h3.832v-14.51h-3.832zM52.887 28.524v-6.62h3.887v-3.282h-3.887v-3.476L49 15.532V28.47c0 5.075 4.962 5.544 8.49 4.661l-.827-2.896c-1.79.358-3.776.22-3.776-1.711M98.153 18.263c-.661 0-2.067.303-5.375 1.434l-.496-1.075h-2.37V33.13h3.859v-10.51c5.017-1.545 5.596-.303 5.596 2.538v7.972h3.859v-8.8c0-4-1.848-6.068-5.073-6.068M81.062 21.711c1.599-.083 2.757.634 3.336 2.069l-6.837 1.71c.138-2.124 1.6-3.669 3.501-3.779m.552 8.496c-1.406-.083-2.674-.442-3.363-1.71l9.951-2.456c-.11-4.248-2.233-7.75-6.974-7.75-3.942 0-7.25 3.117-7.25 7.696 0 4.358 2.922 7.502 7.746 7.502 2.316 0 3.997-.524 5.128-.965l-.91-2.924c-1.323.469-2.867.662-4.328.607M129.106 26.013c0-4.123 3.22-7.372 7.23-7.372 1.883 0 3.63.792 4.939 2.076l-1.173 1.146c-.983-1.038-2.32-1.665-3.766-1.665-3.056 0-5.457 2.566-5.457 5.815 0 3.276 2.401 5.843 5.457 5.843 1.474 0 2.838-.656 3.82-1.72l1.173 1.147c-1.31 1.31-3.083 2.13-4.993 2.13-4.01 0-7.23-3.277-7.23-7.4M155.163 24.02v9.064h-1.692v-8.846c0-2.375-1.582-4.04-3.819-4.04-2.483 0-4.42 1.72-4.42 3.904v8.982h-1.692V14h1.692v7.29c.764-1.557 2.565-2.649 4.638-2.649 3.11 0 5.293 2.24 5.293 5.379M167.96 28.661v-2.266c-1.337-.41-2.892-.71-4.474-.71-2.347 0-4.175 1.31-4.175 3.14 0 1.884 1.637 3.058 3.738 3.058 1.964 0 4.366-1.037 4.911-3.222m1.692-4.177v8.6h-1.692v-2.238c-1.037 1.665-3.274 2.566-5.184 2.566-2.947 0-5.13-1.775-5.13-4.505 0-2.785 2.43-4.696 5.594-4.696 1.528 0 3.22.355 4.72.846v-.573c0-2.075-.928-4.341-4.093-4.341-1.418 0-2.892.546-4.174 1.256l-.683-1.392c1.856-.983 3.602-1.366 4.994-1.366 3.71 0 5.648 2.43 5.648 5.843M172.872 33.084h1.691V14h-1.691zM177.756 33.084h1.691V14h-1.691zM183.622 25.14l9.759-1.97s-.985-2.972-4.494-2.972c-2.755 0-4.91 2.02-5.265 4.941m10.013 4.942l1.064 1.147c-1.2 1.31-3.683 2.184-5.757 2.184-3.765 0-7.066-3.194-7.066-7.426 0-4.177 3.137-7.345 6.957-7.345 5.615 0 6.498 5.64 6.498 5.64l-11.736 2.415c.3 2.92 2.455 5.16 5.347 5.16 1.773 0 3.711-.71 4.693-1.775M209.57 24.02v9.064h-1.692v-8.846c0-2.375-1.582-4.04-3.82-4.04-2.483 0-4.42 1.72-4.42 3.904v8.982h-1.691V18.97h1.692v2.32c.763-1.556 2.564-2.648 4.638-2.648 3.11 0 5.293 2.24 5.293 5.379M223.73 25.33c0-3.003-2.127-5.133-5.074-5.133-2.81 0-4.938 2.212-4.938 5.133 0 2.95 2.128 5.16 4.938 5.16 2.947 0 5.075-2.13 5.075-5.16zm1.693-6.361v12.614c0 3.63-2.783 6.197-6.767 6.197-2.21 0-4.42-.791-5.702-1.884l.764-1.365c1.146 1.038 2.974 1.693 4.747 1.693 3.22 0 5.266-1.775 5.266-4.641v-2.567c-1.091 1.911-3.028 3.03-5.375 3.03-3.656 0-6.385-2.866-6.385-6.716 0-3.822 2.729-6.688 6.385-6.688 2.373 0 4.284 1.091 5.375 3.003v-2.676h1.692zM261.467 19.133c0-1.993-1.992-3.522-4.42-3.522s-4.393 1.529-4.393 3.522c0 2.157 2.265 3.413 4.393 3.522 2.155-.11 4.42-1.392 4.42-3.522m.463 8.955c0-2.294-2.537-3.74-4.883-3.795-2.32.055-4.885 1.501-4.885 3.795 0 2.13 2.183 3.713 4.885 3.713 2.673 0 4.883-1.584 4.883-3.713m-11.54.109c0-2.293 1.8-4.068 4.12-4.805-2.101-.765-3.63-2.375-3.63-4.45 0-2.95 2.947-4.942 6.167-4.942 3.274 0 6.194 2.02 6.194 4.969 0 2.184-1.665 3.74-3.657 4.423 2.32.764 4.12 2.54 4.12 4.805 0 3.058-2.974 5.215-6.657 5.215-3.711 0-6.658-2.157-6.658-5.215M229.867 25.14l9.758-1.97s-.984-2.972-4.493-2.972c-2.755 0-4.91 2.02-5.265 4.941m10.013 4.942l1.064 1.147c-1.2 1.31-3.683 2.184-5.757 2.184-3.765 0-7.066-3.194-7.066-7.426 0-4.177 3.137-7.345 6.957-7.345 5.615 0 6.498 5.64 6.498 5.64l-11.736 2.415c.3 2.92 2.455 5.16 5.347 5.16 1.773 0 3.71-.71 4.693-1.775" mask="url(#b)"/>
    </g>
</svg>