<svg xmlns="http://www.w3.org/2000/svg" xmlns:xlink="http://www.w3.org/1999/xlink" width="110" height="22" viewBox="0 0 110 22">
    <defs>
        <path id="a" d="M0 22h110V0H0z"/>
    </defs>
    <g fill="none" fill-rule="evenodd">
        <path fill="#FFF" d="M49.102 15.996c-5.74 1.757-6.378.352-6.378-2.938V3.826h-4.463v10.19c0 4.631 2.137 7.027 5.834 7.027.766 0 2.36-.35 6.154-1.661l.574 1.246h2.742V3.826h-4.463v12.17zM98.118 16.046v-7.94h4.38V4.169h-4.38V0L93.74.463V15.98c0 6.088 5.59 6.65 9.565 5.59l-.931-3.472c-2.019.43-4.255.263-4.255-2.052"/>
        <mask id="b" fill="#fff">
            <use xlink:href="#a"/>
        </mask>
        <path fill="#FFF" d="M105.217 21.043H110V3.826h-4.783zM31.161 16.046v-7.94h4.38V4.169h-4.38V0l-4.378.463V15.98c0 6.088 5.59 6.65 9.565 5.59l-.932-3.472c-2.018.43-4.255.263-4.255-2.052M85.039 3.826c-.76 0-2.376.351-6.178 1.661l-.571-1.245h-2.725v16.801h4.436V8.873c5.767-1.789 6.433-.351 6.433 2.939v9.231h4.436v-10.19c0-4.631-2.124-7.027-5.831-7.027M65.01 7.916c1.935-.1 3.336.759 4.037 2.474l-8.275 2.045c.167-2.54 1.936-4.387 4.238-4.519m.667 10.16c-1.701-.1-3.236-.53-4.07-2.046l12.045-2.936c-.134-5.079-2.703-9.268-8.442-9.268-4.771 0-8.775 3.727-8.775 9.202 0 5.212 3.537 8.972 9.376 8.972a16.74 16.74 0 0 0 6.206-1.155l-1.101-3.496c-1.602.56-3.47.792-5.239.726M15.905 13.043a9.969 9.969 0 0 1-1.526 3.571 1.126 1.126 0 0 1-.935.497c-.216 0-.44-.066-.634-.201a1.123 1.123 0 0 1-.296-1.571 7.866 7.866 0 0 0 1.18-2.768 8.106 8.106 0 0 0 0-3.384 7.946 7.946 0 0 0-1.18-2.774 1.12 1.12 0 0 1 .302-1.57 1.12 1.12 0 0 1 1.563.302 9.912 9.912 0 0 1 1.526 3.57 10.35 10.35 0 0 1 0 4.328M9.778 8.58a1.494 1.494 0 0 1-2.094 0 1.51 1.51 0 0 1-.436-1.051c0-.39.16-.766.436-1.044.55-.556 1.548-.556 2.094 0 .275.278.434.654.434 1.044s-.159.774-.434 1.051m.032 4.67L8.276 16.4c-.195.41-.61.645-1.03.645-.168 0-.34-.043-.502-.113a1.146 1.146 0 0 1-.528-1.533l1.528-3.158a1.14 1.14 0 0 1 1.534-.527c.574.277.81.962.532 1.536M17.258 0H4.742A4.742 4.742 0 0 0 0 4.742v12.516A4.742 4.742 0 0 0 4.742 22h12.516A4.742 4.742 0 0 0 22 17.258V4.742A4.742 4.742 0 0 0 17.258 0" mask="url(#b)"/>
    </g>
</svg>
